<svg width="2991" height="3462" viewBox="0 0 2991 3462" fill="none" xmlns="http://www.w3.org/2000/svg">
<path d="M1589.82 1805.82L1583.94 1764.85L1547.06 1815.16L1495.15 1826.53L1524.2 1846.33L1461.22 1932.14L1556.73 1868.5L1574.98 1880.94L1604.81 1910.76L1595.12 1842.92L1680.48 1785.97L1589.82 1805.82Z" fill="url(#paint0_linear_931_13488)"/>
<path fill-rule="evenodd" clip-rule="evenodd" d="M1726.48 1601.8L1646.73 1581.21L1598.57 1608.71L1537.05 1633.06L1432.31 1720.46L1402.6 1736L1383.97 1806.01L1414.26 1827.18L1426.1 1866.31L1424.4 1870.14L1325.72 2005.83L1351.56 2081.37L1554.68 2047.91L1560.59 2045.75L1702.18 2051.4L1705.67 2075.95L1753.64 2000.33L1726.37 1802.71L1726.17 1798.14L1779.53 1763.87L1761.75 1692.49L1760.68 1687.63L1728.64 1659.42L1726.48 1601.8ZM1726.74 1994.48L1706.93 2025.73L1556.53 2019.73L1548.09 2022.81L1368.94 2052.32L1354.51 2010.17L1446.91 1883.13L1453.61 1868.02L1436.4 1811.13L1413.59 1795.19L1424.65 1753.63L1446.74 1742.08L1550.42 1655.56L1609.8 1632.06L1650.43 1608.85L1701.38 1622.01L1703.23 1671.47L1737.37 1701.54L1749.97 1752.14L1699.7 1784.43L1700.6 1805.04L1726.74 1994.48Z" fill="url(#paint1_linear_931_13488)"/>
<path fill-rule="evenodd" clip-rule="evenodd" d="M1706.87 1358.06L1829.01 1398.81L1843.64 1504.28L1912.04 1562.35L1912.89 1566.19L1954.59 1687.77L1856.86 1753.18L1858.67 1770.43L1913.51 2135.13L1835.67 2241.17L1832.71 2220.39L1562.14 2223.17L1549.44 2227.55L1192.03 2270.65L1138.71 2151.49L1316.66 1904.84L1323.03 1890.3L1304.85 1809.33L1252.9 1775.48L1267.4 1652.06L1317.38 1625.05L1506.09 1476.5L1625.34 1408.65L1706.87 1358.06ZM1839.49 2197.64L1889.69 2129.25L1836.16 1773.3L1832.87 1741.95L1927.48 1678.63L1891.94 1575.03L1822.36 1515.97L1808.47 1415.87L1709.78 1382.94L1636.94 1428.14L1518.79 1495.37L1329.88 1644.08L1288.55 1666.41L1277.07 1764.16L1324.96 1795.37L1346.79 1892.58L1336.47 1916.15L1164.75 2154.16L1205.91 2246.13L1544.32 2205.33L1558.23 2200.53L1839.49 2197.64Z" fill="url(#paint2_linear_931_13488)"/>
<path fill-rule="evenodd" clip-rule="evenodd" d="M1927.58 1196.34L1765.95 1133.53L1651.65 1206.31L1476.23 1320.52L1199.43 1527.16L1139.19 1577.48L1121.61 1742.94L1196.83 1790.34L1227.81 1920.08L1214.89 1943.19L954.754 2298.67L1031.41 2455.69L1546.03 2415.15L1564.53 2405.59L1962.81 2385.08L1965.26 2406.93L2062.74 2270.98L1987.78 1740.11L1990.34 1714.09L2135.38 1621.31L2064.54 1442.24L2060.13 1422.13L1951.02 1349.93L1927.58 1196.34ZM2042.32 2265.96L1971.23 2365.1L1559.31 2386.31L1540.56 2396L1043.13 2435.19L977.462 2300.69L1231.34 1953.76L1248.57 1922.95L1213.97 1778.08L1142.3 1732.91L1157.76 1587.39L1211.53 1542.48L1487.4 1336.53L1662.18 1222.74L1662.26 1222.69L1768.1 1155.3L1909.98 1210.44L1933.03 1361.43L2042.76 1434.04L2045.81 1447.95L2111.31 1613.54L1971.85 1702.76L1968.12 1740.53L2042.32 2265.96Z" fill="url(#paint3_linear_931_13488)"/>
<path fill-rule="evenodd" clip-rule="evenodd" d="M2143.7 788.596L1876.31 674.822L1711.38 811.152L1404.97 991.677L969.321 1336.56L882.54 1425.11L876.912 1651.59L993.982 1731.44L1022.29 1970.08L1009.04 2020.55L556.992 2570.9L710.624 2828.2L1533.62 2772.75L1565.68 2781.01L2225.69 2724.46L2229.2 2732.39L2362.68 2542.62L2278.57 1670.47L2246 1614.72L2474.52 1455.99L2366.42 1188.31L2361.05 1189.97L2167.51 1043.36L2143.7 788.596ZM2349.07 2539.03L2228.11 2711.01L1566.8 2767.68L1534.85 2759.44L717.808 2814.49L573.081 2572.1L1021.07 2026.69L1035.69 1971.01L1006.62 1725.92L1093.5 1764.12L1114.99 1938.8L1112 1983.63L755.815 2434.64L872.545 2658.06L1537.77 2578.69L1563.4 2578.83L2093.31 2550.08L2095.42 2565.21L2238.44 2403.46L2113.94 1709.55L2123.62 1673.47L2310.98 1547.63L2213.28 1305.57L2208.19 1307.14L2063.15 1196.15L2026.32 993.573L1828.02 913.769L1683.61 1011.46L1437.68 1152.01L1093.58 1441.77L992.978 1474.14L986.807 1710.58L890.283 1644.73L895.604 1430.64L978.165 1346.39L1412.45 1002.58L1718.98 821.988L1878.54 690.106L2131.29 797.657L2154.91 1050.37L2358.88 1204.87L2458.34 1451.16L2228.45 1610.85L2265.71 1674.62L2349.07 2539.03ZM2101.87 2533.23L2220.94 2398.56L2097.19 1708.84L2109.41 1663.31L2290.85 1541.45L2202.98 1323.75L2048.19 1205.3L2011.84 1005.38L1829.98 932.189L1692.27 1025.36L1447.09 1165.48L1101.66 1456.35L1009.03 1486.16L1003.28 1706.58L1108.6 1752.89L1131.41 1938.34L1127.98 1989.79L775.222 2436.46L881.817 2640.48L1536.84 2562.33L1563 2562.47L2101.87 2533.23Z" fill="url(#paint4_linear_931_13488)"/>
<path fill-rule="evenodd" clip-rule="evenodd" d="M1922.86 432.865L2223.52 588.306L2307.85 884.787L2507.45 1015.42L2516.08 1054.81L2644.07 1373.45L2365.73 1560.16L2408.15 1639.39L2527.67 2676.57L2361.82 2858.37L2360.97 2862.08L1566.3 2937.14L1528.11 2932.85L549.044 3003.6L391.358 2731.15L904.099 2057.32L919.188 1995.03L857.524 1753.77L746.074 1617.6L725.114 1306.63L867.387 1256.59L1404.88 877.448L1727.85 594.886L1922.86 432.865ZM1924.16 444.832L1734.41 602.479L1734.31 602.562L1411.09 885.344L872.033 1265.6L735.64 1313.57L755.871 1613.73L866.697 1749.14L929.53 1994.97L913.357 2061.72L403.391 2731.91L554.584 2993.14L1528.31 2922.78L1566.39 2927.05L2353.4 2852.71L2517.17 2673.18L2398.4 1642.44L2352.6 1556.89L2631.73 1369.65L2506.45 1057.77L2498.52 1021.57L2299.22 891.132L2215.06 595.225L1924.16 444.832Z" fill="url(#paint5_linear_931_13488)"/>
<path fill-rule="evenodd" clip-rule="evenodd" d="M2051.59 0L2478.8 174.579L2542.75 575.584L2822.14 836.905L2808.49 774.562L2812.03 773.476L2990.53 1219.34L2600.97 1446.72L2622.95 1583.75L2819.35 2949.02L2616 3175.35L2623.12 3282.14L1575.11 3368.27L1575.04 3368.27L1574.97 3368.27L1525.69 3368.61L1525.57 3368.61L234.47 3461.38L0 3007.5L652.605 2098.89L733.563 2057.89L671.919 1684.14L590.429 1620.44L591.127 1612.52L493.777 1537.02L500.086 1197.86L619.75 1043.12L1324.81 536.071L1324.83 536.059L1786.09 196.142L2051.59 0ZM737.669 2059.97L676.239 1687.52L745.203 1741.44L791.457 2001.85L791.462 2001.88L808.337 2101.53L210.758 2880.36L389.191 3199.78L1526.56 3134.83L1568.6 3114.76L2494.96 3105.84L2489.82 3024.85L2696.34 2809.58L2541.44 1607.72L2491.24 1511.39L2811.03 1287.03L2658.51 888.975L2651.95 890.94L2663.61 944.19L2402.97 733.628L2365.72 379.501L1987.19 216.677L1765.14 406.892L1359.9 699.508L716.372 1113.78L621.69 1265.61L591.514 1608.12L497.524 1535.23L503.774 1199.16L622.357 1045.82L1327 539.072L1327.01 539.059L1788.3 199.128L2052.12 4.22562L2475.46 177.225L2539.29 577.425L2828.32 847.768L2816.91 795.67L2985.9 1217.75L2596.9 1444.8L2619.27 1584.28L2619.28 1584.31L2815.43 2947.83L2612.19 3174.03L2619.18 3278.74L1574.87 3364.56L1525.54 3364.9L1525.48 3364.9L1525.42 3364.91L236.646 3457.5L4.34261 3007.81L655.091 2101.79L737.669 2059.97ZM628.394 1267.85L597.973 1613.13L673.65 1671.83L674.587 1677.51L751.511 1737.64L798.235 2000.7L815.614 2103.34L218.964 2880.96L393.095 3192.67L1524.82 3128.05L1567.02 3107.9L2487.64 3099.04L2482.77 3022.27L2689.1 2807.2L2534.78 1609.81L2482.36 1509.23L2802.69 1284.48L2668.43 934.055L2674.51 961.831L2396.43 737.182L2359.31 384.223L1988.41 224.683L1769.39 412.298L1363.78 705.188L721.39 1118.73L628.394 1267.85ZM670.224 1673.87L633.632 1645.49L670.267 1674.13L670.224 1673.87Z" fill="url(#paint6_linear_931_13488)"/>
<defs>
<linearGradient id="paint0_linear_931_13488" x1="2990.53" y1="1730.69" x2="-1.41592e-05" y2="1730.69" gradientUnits="userSpaceOnUse">
<stop stop-color="#58B949"/>
<stop offset="1" stop-color="#9ACB3E"/>
</linearGradient>
<linearGradient id="paint1_linear_931_13488" x1="2990.53" y1="1730.69" x2="-1.41592e-05" y2="1730.69" gradientUnits="userSpaceOnUse">
<stop stop-color="#58B949"/>
<stop offset="1" stop-color="#9ACB3E"/>
</linearGradient>
<linearGradient id="paint2_linear_931_13488" x1="2990.53" y1="1730.69" x2="-1.41592e-05" y2="1730.69" gradientUnits="userSpaceOnUse">
<stop stop-color="#58B949"/>
<stop offset="1" stop-color="#9ACB3E"/>
</linearGradient>
<linearGradient id="paint3_linear_931_13488" x1="2990.53" y1="1730.69" x2="-1.41592e-05" y2="1730.69" gradientUnits="userSpaceOnUse">
<stop stop-color="#58B949"/>
<stop offset="1" stop-color="#9ACB3E"/>
</linearGradient>
<linearGradient id="paint4_linear_931_13488" x1="2990.53" y1="1730.69" x2="-1.41592e-05" y2="1730.69" gradientUnits="userSpaceOnUse">
<stop stop-color="#58B949"/>
<stop offset="1" stop-color="#9ACB3E"/>
</linearGradient>
<linearGradient id="paint5_linear_931_13488" x1="2990.53" y1="1730.69" x2="-1.41592e-05" y2="1730.69" gradientUnits="userSpaceOnUse">
<stop stop-color="#58B949"/>
<stop offset="1" stop-color="#9ACB3E"/>
</linearGradient>
<linearGradient id="paint6_linear_931_13488" x1="2990.53" y1="1730.69" x2="-1.41592e-05" y2="1730.69" gradientUnits="userSpaceOnUse">
<stop stop-color="#58B949"/>
<stop offset="1" stop-color="#9ACB3E"/>
</linearGradient>
</defs>
</svg>
