<svg width="2991" height="3462" viewBox="0 0 2991 3462" fill="none" xmlns="http://www.w3.org/2000/svg">
<path d="M1589.89 1806.27L1584.02 1765.3L1547.13 1815.61L1495.22 1826.98L1524.28 1846.78L1461.3 1932.59L1556.8 1868.95L1575.06 1881.39L1604.88 1911.21L1595.19 1843.37L1680.56 1786.42L1589.89 1806.27Z" fill="#111111"/>
<path fill-rule="evenodd" clip-rule="evenodd" d="M1726.56 1602.25L1646.8 1581.66L1598.65 1609.16L1537.12 1633.51L1432.39 1720.91L1402.68 1736.45L1384.04 1806.46L1414.33 1827.63L1426.17 1866.76L1424.47 1870.59L1325.79 2006.28L1351.64 2081.82L1554.75 2048.36L1560.67 2046.2L1702.25 2051.85L1705.75 2076.4L1753.71 2000.78L1726.44 1803.16L1726.24 1798.59L1779.6 1764.32L1761.82 1692.94L1760.76 1688.08L1728.71 1659.87L1726.56 1602.25ZM1726.82 1994.93L1707 2026.18L1556.6 2020.18L1548.17 2023.26L1369.01 2052.77L1354.59 2010.62L1446.98 1883.58L1453.69 1868.47L1436.47 1811.58L1413.67 1795.64L1424.73 1754.08L1446.82 1742.53L1550.5 1656.01L1609.87 1632.51L1650.5 1609.3L1701.45 1622.46L1703.3 1671.92L1737.45 1701.99L1750.05 1752.59L1699.78 1784.88L1700.67 1805.5L1726.82 1994.93Z" fill="#111111"/>
<path fill-rule="evenodd" clip-rule="evenodd" d="M1706.94 1358.51L1829.08 1399.26L1843.72 1504.73L1912.12 1562.8L1912.96 1566.64L1954.67 1688.22L1856.93 1753.63L1858.74 1770.88L1913.58 2135.58L1835.74 2241.62L1832.79 2220.84L1562.22 2223.62L1549.51 2228L1192.11 2271.1L1138.79 2151.94L1316.73 1905.29L1323.11 1890.75L1304.93 1809.78L1252.97 1775.94L1267.48 1652.51L1317.46 1625.5L1506.17 1476.95L1625.42 1409.1L1706.94 1358.51ZM1839.56 2198.09L1889.76 2129.7L1836.24 1773.75L1832.95 1742.4L1927.56 1679.08L1892.01 1575.48L1822.44 1516.42L1808.55 1416.32L1709.86 1383.39L1637.01 1428.59L1518.86 1495.82L1329.96 1644.53L1288.63 1666.86L1277.14 1764.61L1325.04 1795.82L1346.86 1893.03L1336.54 1916.6L1164.83 2154.61L1205.98 2246.58L1544.4 2205.78L1558.3 2200.98L1839.56 2198.09Z" fill="#111111"/>
<path fill-rule="evenodd" clip-rule="evenodd" d="M1927.65 1196.79L1766.03 1133.98L1651.73 1206.76L1476.3 1320.97L1199.5 1527.61L1139.26 1577.93L1121.68 1743.39L1196.91 1790.79L1227.89 1920.53L1214.96 1943.64L954.83 2299.12L1031.49 2456.14L1546.1 2415.6L1564.6 2406.04L1962.88 2385.53L1965.34 2407.38L2062.81 2271.43L1987.85 1740.56L1990.42 1714.54L2135.45 1621.76L2064.61 1442.69L2060.2 1422.58L1951.09 1350.38L1927.65 1196.79ZM2042.39 2266.41L1971.31 2365.55L1559.39 2386.76L1540.64 2396.45L1043.2 2435.64L977.538 2301.14L1231.42 1954.21L1248.64 1923.4L1214.05 1778.53L1142.38 1733.36L1157.84 1587.84L1211.61 1542.93L1487.48 1336.98L1662.26 1223.2L1662.34 1223.14L1768.18 1155.75L1910.06 1210.89L1933.1 1361.88L2042.83 1434.49L2045.88 1448.4L2111.38 1613.99L1971.92 1703.21L1968.2 1740.98L2042.39 2266.41Z" fill="#111111"/>
<path fill-rule="evenodd" clip-rule="evenodd" d="M2143.77 789.046L1876.39 675.272L1711.45 811.602L1405.05 992.127L969.396 1337.01L882.615 1425.56L876.987 1652.04L994.057 1731.89L1022.37 1970.53L1009.11 2021L557.068 2571.35L710.699 2828.65L1533.69 2773.2L1565.76 2781.46L2225.77 2724.91L2229.28 2732.84L2362.75 2543.07L2278.65 1670.92L2246.07 1615.17L2474.59 1456.44L2366.5 1188.76L2361.13 1190.42L2167.59 1043.81L2143.77 789.046ZM2349.15 2539.48L2228.18 2711.46L1566.87 2768.13L1534.93 2759.89L717.884 2814.94L573.156 2572.55L1021.14 2027.14L1035.77 1971.46L1006.69 1726.37L1093.57 1764.57L1115.06 1939.25L1112.07 1984.08L755.89 2435.09L872.62 2658.51L1537.84 2579.14L1563.47 2579.28L2093.38 2550.53L2095.5 2565.66L2238.52 2403.91L2114.01 1710L2123.69 1673.92L2311.06 1548.08L2213.36 1306.02L2208.26 1307.59L2063.22 1196.6L2026.39 994.024L1828.09 914.219L1683.69 1011.91L1437.76 1152.46L1093.66 1442.22L993.053 1474.59L986.882 1711.03L890.358 1645.18L895.679 1431.09L978.241 1346.84L1412.53 1003.03L1719.05 822.438L1878.61 690.557L2131.36 798.107L2154.99 1050.82L2358.95 1205.32L2458.41 1451.61L2228.52 1611.3L2265.79 1675.07L2349.15 2539.48ZM2101.94 2533.68L2221.02 2399.01L2097.27 1709.29L2109.48 1663.76L2290.92 1541.9L2203.06 1324.2L2048.26 1205.75L2011.91 1005.83L1830.05 932.64L1692.34 1025.81L1447.16 1165.93L1101.73 1456.8L1009.1 1486.61L1003.35 1707.03L1108.67 1753.34L1131.49 1938.79L1128.06 1990.24L775.297 2436.91L881.892 2640.93L1536.91 2562.78L1563.08 2562.92L2101.94 2533.68Z" fill="#111111"/>
<path fill-rule="evenodd" clip-rule="evenodd" d="M1922.94 433.315L2223.6 588.756L2307.92 885.237L2507.52 1015.87L2516.15 1055.26L2644.15 1373.9L2365.81 1560.61L2408.23 1639.84L2527.74 2677.02L2361.9 2858.82L2361.05 2862.53L1566.37 2937.59L1528.18 2933.3L549.119 3004.05L391.433 2731.6L904.174 2057.77L919.263 1995.48L857.599 1754.22L746.149 1618.05L725.19 1307.08L867.462 1257.04L1404.95 877.898L1727.92 595.336L1922.94 433.315ZM1924.24 445.282L1734.48 602.93L1734.39 603.013L1411.17 885.795L872.108 1266.05L735.715 1314.02L755.947 1614.18L866.772 1749.59L929.605 1995.42L913.433 2062.17L403.467 2732.36L554.659 2993.59L1528.38 2923.23L1566.46 2927.5L2353.48 2853.16L2517.25 2673.63L2398.48 1642.89L2352.67 1557.34L2631.8 1370.1L2506.53 1058.22L2498.6 1022.02L2299.29 891.583L2215.13 595.675L1924.24 445.282Z" fill="#111111"/>
<path fill-rule="evenodd" clip-rule="evenodd" d="M2051.66 0.450195L2478.87 175.029L2542.83 576.034L2822.22 837.355L2808.57 775.013L2812.1 773.926L2990.61 1219.79L2601.05 1447.17L2623.02 1584.2L2819.42 2949.47L2616.07 3175.8L2623.2 3282.59L1575.18 3368.72L1575.11 3368.72L1575.04 3368.72L1525.76 3369.06L1525.64 3369.07L234.546 3461.83L0.0751953 3007.95L652.68 2099.34L733.639 2058.34L671.994 1684.6L590.505 1620.89L591.202 1612.97L493.852 1537.47L500.161 1198.31L619.826 1043.57L1324.89 536.522L1324.9 536.509L1786.17 196.593L2051.66 0.450195ZM737.745 2060.42L676.314 1687.97L745.278 1741.89L791.532 2002.3L791.537 2002.33L808.412 2101.98L210.833 2880.81L389.266 3200.23L1526.63 3135.29L1568.68 3115.21L2495.03 3106.29L2489.89 3025.3L2696.42 2810.03L2541.51 1608.17L2491.32 1511.84L2811.1 1287.48L2658.59 889.426L2652.02 891.39L2663.68 944.64L2403.04 734.078L2365.8 379.951L1987.27 217.127L1765.21 407.343L1359.98 699.959L716.448 1114.23L621.766 1266.06L591.589 1608.57L497.599 1535.68L503.85 1199.61L622.432 1046.27L1327.07 539.522L1327.09 539.51L1788.37 199.578L2052.19 4.67581L2475.54 177.676L2539.36 577.875L2828.4 848.218L2816.99 796.12L2985.97 1218.2L2596.98 1445.25L2619.35 1584.73L2619.35 1584.76L2815.5 2948.28L2612.26 3174.48L2619.25 3279.19L1574.95 3365.01L1525.62 3365.35L1525.56 3365.35L1525.5 3365.36L236.721 3457.95L4.4178 3008.26L655.166 2102.24L737.745 2060.42ZM628.469 1268.3L598.049 1613.58L673.725 1672.28L674.662 1677.96L751.586 1738.09L798.31 2001.15L815.69 2103.79L219.039 2881.41L393.17 3193.12L1524.89 3128.5L1567.09 3108.35L2487.71 3099.49L2482.84 3022.72L2689.18 2807.65L2534.85 1610.26L2482.44 1509.68L2802.77 1284.93L2668.5 934.505L2674.58 962.282L2396.5 737.632L2359.38 384.673L1988.49 225.133L1769.47 412.748L1363.85 705.638L721.465 1119.18L628.469 1268.3ZM670.299 1674.32L633.707 1645.94L670.342 1674.58L670.299 1674.32Z" fill="#111111"/>
</svg>
