<?xml version="1.0" encoding="utf-8"?>
<!DOCTYPE svg PUBLIC "-//W3C//DTD SVG 1.1//EN" "http://www.w3.org/Graphics/SVG/1.1/DTD/svg11.dtd">
<svg version="1.1" id="piecons" xmlns="http://www.w3.org/2000/svg" xmlns:xlink="http://www.w3.org/1999/xlink" x="0px" y="0px" viewBox="0 0 32 608" enable-background="new 0 0 32 608" xml:space="preserve">

    <view id="captain" viewBox="0 0 24 24" />
    <view id="pc" viewBox="0 24 24 24" />
    <view id="console" viewBox="0 48 24 24" />
    <view id="verified" viewBox="0 72 24 24" />
    <view id="twitch" viewBox="0 96 24 24" />
    <view id="kick" viewBox="0 120 24 24" />
    <view id="youtube" viewBox="0 144 24 24" />
    <view id="trovo" viewBox="0 168 24 24" />
    <view id="vkplay" viewBox="0 192 24 24" />

    <view id="discord-light" viewBox="0 224 32 32" />
    <view id="discord-dark" viewBox="0 256 32 32" />

    <view id="register" viewBox="0 288 32 32" />
    <view id="contestants" viewBox="0 320 32 32" />
    <view id="rules" viewBox="0 352 32 32" />
    <view id="close" viewBox="0 384 32 32" />

    <view id="arrow-dark" viewBox="0 416 32 32" />
    <view id="arrow-light" viewBox="0 448 32 32" />

    <view id="list-dark" viewBox="0 480 32 32" />
    <view id="list-light" viewBox="0 512 32 32" />

    <view id="stats-dark" viewBox="0 544 32 32" />
    <view id="stats-light" viewBox="0 576 32 32" />

    <defs>
    <linearGradient id="paint0_linear_977_13631" x1="24" y1="5.83333" x2="3.50435e-06" y2="22" gradientUnits="userSpaceOnUse">
    <stop stop-color="#9ACB3E"/>
    <stop offset="1" stop-color="#58B949"/>
    </linearGradient>
    </defs>

    <g id="icon-captain">
        <path d="M21.1172 19.9998H2.88278C2.37846 19.9998 1.95306 19.6243 1.8905 19.1238L0.361501 6.89182C0.243401 5.94702 1.38761 5.3874 2.06088 6.06068L8 11.9998L11.1679 7.24787C11.5638 6.65413 12.4362 6.65413 12.832 7.24787L16 11.9998L21.9391 6.06068C22.6124 5.3874 23.7566 5.94702 23.6385 6.89182L22.1095 19.1238C22.0469 19.6243 21.6215 19.9998 21.1172 19.9998Z" fill="#D4A835"/>
    </g>

    <g id="icon-pc" transform="translate(0, 24)">
        <path d="M2 9C0.89543 9 0 9.89543 0 11V21C0 22.1046 0.895431 23 2 23H22C23.1046 23 24 22.1046 24 21V11C24 9.89543 23.1046 9 22 9H2ZM16 12H18V14H16V12ZM13 12H15V14H13V12ZM16 15V17H14V15H16ZM10 12H12V14H10V12ZM13 15V17H11V15H13ZM7 12H9V14H7V12ZM10 15V17H8V15H10ZM3 12H6V14H3V12ZM3 15H7V17H3V15ZM17 20H7V18H17V20ZM21 17H17V15H21V17ZM21 14H19V12H21V14ZM11.642 5.188C10.606 5.145 9.349 5.102 8.593 4.161C8.2 3.672 7.999 3.025 7.999 2.314C7.999 1.892 8.07 1.447 8.216 1L9.422 1.363C9.217 1.997 9.153 2.869 9.594 3.417C10.044 3.977 10.986 3.929 11.97 4.001C14.104 4.156 15 5.424 15 6.679C15 7.14 14.879 7.599 14.655 8H13.086C14.102 7.196 14.146 5.294 11.642 5.188Z" fill="#666666"/>
    </g>

    <g id="icon-console" transform="translate(0,48)">
      <path d="M17.622 3C15.709 3 15.064 4.382 11.999 4.382C8.99 4.382 8.253 3 6.376 3C1.167 3 0 13.375 0 17.348C0 19.493 0.817 21 2.469 21C5.927 21 5.395 16 9.384 16H14.614C18.603 16 18.071 21 21.529 21C23.181 21 24 19.494 24 17.349C24 13.376 22.831 3 17.622 3ZM7 13C5.343 13 4 11.657 4 10C4 8.343 5.343 7 7 7C8.657 7 10 8.343 10 10C10 11.657 8.657 13 7 13ZM17 7C17.552 7 18 7.447 18 8C18 8.553 17.552 9 17 9C16.448 9 16 8.553 16 8C16 7.447 16.448 7 17 7ZM15 11C14.448 11 14 10.553 14 10C14 9.447 14.448 9 15 9C15.552 9 16 9.447 16 10C16 10.553 15.552 11 15 11ZM17 13C16.448 13 16 12.553 16 12C16 11.447 16.448 11 17 11C17.552 11 18 11.447 18 12C18 12.553 17.552 13 17 13ZM19 11C18.448 11 18 10.553 18 10C18 9.447 18.448 9 19 9C19.552 9 20 9.447 20 10C20 10.553 19.552 11 19 11ZM8.75 10C8.75 10.965 7.965 11.75 7 11.75C6.035 11.75 5.25 10.965 5.25 10C5.25 9.035 6.035 8.25 7 8.25C7.965 8.25 8.75 9.035 8.75 10Z" fill="#666666"/>
    </g>

    <g id="icon-verified" transform="translate(0,72)">
      <path d="M16 11.3333L24 6L15.5033 7.85867L14.6667 2L9.38933 9.196L2.66667 10.6667L6.42933 13.2327L0 22L9.75267 15.498L17.3333 20.6667L16 11.3333Z" fill="url(#paint0_linear_977_13631)"/>
    </g>

    <g id="icon-twitch" transform="translate(0,96)">
      <path fill-rule="evenodd" clip-rule="evenodd" d="M2.14911 0L0.537109 4.119V20.955H6.26811V24H9.49211L12.5371 20.955H17.1941L23.4631 14.686V0L2.14911 0ZM21.3131 13.612L17.7311 17.194H12.0001L8.95511 20.239V17.194H4.11911V2.149H21.3131V13.612ZM17.7311 6.269V12.531H15.5821V6.269H17.7311ZM12.0001 6.269V12.531H9.85111V6.269H12.0001Z" fill="#9046FF"/>
    </g>

    <g id="icon-kick" transform="translate(0,120)">
    <path d="M0.5 8H2.96421V9.77779H3.78571V8.88882H4.60722V8H7.07143V10.6666H6.24993V11.5556H5.42872V12.4444H6.24993V13.3334H7.07143V16H4.60722V15.1112H3.78571V14.2222H2.96421V16H0.5V8Z" fill="white"/>
    <path d="M16.9286 8H19.3928V9.77779H20.2143V8.88882H21.0358V8H23.5V10.6666H22.6785V11.5556H21.8573V12.4444H22.6785V13.3334H23.5V16H21.0358V15.1112H20.2143V14.2222H19.3928V16H16.9286V8Z" fill="white"/>
    <path d="M7.89293 8H10.3571V16H7.89293V8Z" fill="white"/>
    <path d="M12.0001 8V8.88882H11.1786V15.1112H12.0001V16H16.1071V13.3334H13.6429V10.6666H16.1071V8H12.0001Z" fill="white"/>
    </g>

    <g id="icon-youtube" transform="translate(0,144)">
    <rect x="8" y="7" width="10" height="10" fill="white"/>
    <path d="M19.615 3.18413C16.011 2.93813 7.984 2.93913 4.385 3.18413C0.488 3.45013 0.029 5.80412 0 12.0001C0.029 18.1851 0.484 20.5491 4.385 20.8161C7.985 21.0611 16.011 21.0621 19.615 20.8161C23.512 20.5501 23.971 18.1961 24 12.0001C23.971 5.81512 23.516 3.45113 19.615 3.18413ZM9 16.0001V8.00013L17 11.9931L9 16.0001Z" fill="#FF0000"/>
    </g>

    <g id="icon-trovo" transform="translate(0,168)">
    <path d="M13.2938 22.9923C13.2338 22.986 13.0443 22.964 12.8738 22.9451C11.3545 22.7817 9.72788 22.0869 8.39815 21.0338C8.02544 20.7383 7.40637 20.1254 7.12527 19.7733C6.3767 18.8365 5.8208 17.7048 5.49232 16.4568C5.19858 15.3251 5.0975 14.4229 5.12277 13.1058C5.13856 12.1533 5.30912 12.257 3.84989 12.3262C3.47719 12.345 2.86759 12.367 2.50121 12.3765C1.38625 12.4079 1.39257 12.4142 1.14621 10.9241C1.07672 10.4935 1.01987 10.1477 0.944062 9.68243C0.90616 9.4498 0.855624 9.1323 0.830356 8.97513C0.805088 8.82109 0.764027 8.55703 0.738759 8.39357C0.713491 8.2301 0.669272 7.95975 0.644004 7.79629C0.618736 7.63282 0.5682 7.31532 0.533456 7.08899C0.498712 6.86579 0.448176 6.54515 0.422908 6.38168C0.394481 6.21822 0.353421 5.9573 0.331311 5.80012C0.214446 5.04253 0.116533 4.4201 0.0723135 4.14975C0.0470454 3.98629 0.0154603 3.70651 0.00598478 3.53047C-0.0256003 2.98035 0.0375699 2.94891 0.953538 3.04951C1.54734 3.11238 1.73053 3.13438 2.76021 3.26955C3.67617 3.38901 3.9257 3.42359 4.29208 3.47389C4.49107 3.50218 4.79744 3.54619 4.97116 3.56819C5.6155 3.65621 6.24404 3.74109 6.55042 3.7851C6.72414 3.81025 7.03051 3.85426 7.2295 3.88255C7.42848 3.91084 7.74118 3.95485 7.92437 3.98C8.88771 4.11517 8.75822 4.13089 9.12776 3.83225C10.6344 2.60312 12.6527 1.40856 13.7202 1.10993C14.2856 0.952747 14.5446 0.962178 14.8257 1.15079C15.031 1.28911 15.0879 1.37398 15.3342 1.9524C15.4479 2.2196 15.5522 2.4648 15.568 2.49938C15.5838 2.53396 15.7448 2.91433 15.9312 3.34186C16.4555 4.5647 16.7871 5.18713 16.9609 5.27201C17.0019 5.29087 17.1567 5.3223 17.3051 5.34431C17.4536 5.36317 17.7094 5.40089 17.8737 5.4229C18.4359 5.50149 18.8686 5.56436 19.3266 5.62723C19.5793 5.66181 19.933 5.7121 20.1162 5.73725C20.2994 5.7624 20.5616 5.79698 20.7005 5.81584C20.8395 5.83156 21.0385 5.85985 21.1427 5.87871C21.3291 5.90701 21.7934 5.97302 22.7378 6.09876C24.0865 6.27795 24.137 6.31567 23.8748 6.97896C23.8054 7.16129 23.6822 7.4725 23.6064 7.67055C23.5274 7.86859 23.3474 8.33698 23.2021 8.70792C23.0568 9.07886 22.8704 9.55354 22.7915 9.76102C22.2293 11.2165 22.2451 11.1851 22.0429 11.2856C21.8471 11.3862 21.7713 11.3925 19.674 11.5057C15.2426 11.7477 14.4656 11.9269 13.4518 12.9486C12.4379 13.9671 12.0052 15.2748 12.2042 16.724C12.4095 18.2549 13.3475 19.3112 14.7373 19.5721C15.2458 19.6664 15.8554 19.5847 16.3513 19.3489C17.1535 18.9717 17.6526 18.2172 17.6526 17.3873C17.6526 16.7429 17.3746 16.2242 16.8977 15.9916C16.7113 15.9004 16.664 15.891 16.405 15.891C16.1649 15.891 16.0923 15.9067 15.947 15.9727C15.6248 16.1236 15.5048 16.2902 15.5048 16.5826C15.5048 16.8309 15.5806 16.9724 15.827 17.2018C16.0133 17.3747 16.0228 17.3873 16.0228 17.5351C16.0228 17.906 15.6153 18.1072 15.1479 17.9657C14.6646 17.8211 14.3109 17.4439 14.1403 16.8969C14.0456 16.592 14.0424 16.0513 14.1372 15.7275C14.4056 14.8222 15.1668 14.1809 16.1681 14.0237C16.4334 13.9797 17.103 13.9797 17.3683 14.0237C18.518 14.206 19.4624 15.0485 19.8635 16.2462C20.0183 16.7146 20.0625 17.0227 20.0625 17.6356C20.0625 18.1166 20.0499 18.2706 19.993 18.5316C19.7751 19.5249 19.3392 20.3234 18.6033 21.0716C17.602 22.0901 16.2218 22.7628 14.7468 22.9483C14.4625 22.986 13.4802 23.0143 13.2938 22.9923Z" fill="#30B373"/>
    </g>

    <g id="icon-vkplay" transform="translate(0,192)">
      <path d="M12.504 0C17.928 0 20.64 0 22.32 1.68C24 3.36 24 6.072 24 11.496V12.504C24 17.928 24 20.64 22.32 22.32C20.64 24 17.928 24 12.504 24H11.496C6.072 24 3.36 24 1.68 22.32C0 20.64 0 17.928 0 12.5046V11.4954C0 6.07138 0 3.36 1.68 1.68C3.36 0 6.072 0 11.496 0H12.504Z" fill="#0077FF"/>
      <path d="M0.072 6.74409C0 8.03886 0 9.59947 0 11.4949V12.5029C0 13.9429 0 15.1675 0.024 16.2469C3.168 17.7841 7.392 18.7195 12 18.7195C16.608 18.7195 20.832 17.7841 23.976 16.2475C24 15.1675 24 13.9195 24 12.5041V11.4961C24 9.6007 24 8.04009 23.928 6.7207H0.072V6.74409Z" fill="#0009B4"/>
      <path fill-rule="evenodd" clip-rule="evenodd" d="M16.6802 11.0388C16.0833 11.0388 15.5993 11.5227 15.5993 12.1197C15.5993 12.7167 16.0833 13.2006 16.6802 13.2006C17.2772 13.2006 17.7612 12.7167 17.7612 12.1197C17.7612 11.5227 17.2772 11.0388 16.6802 11.0388ZM13.2012 12.1197C13.2012 10.1983 14.7588 8.64062 16.6802 8.64062C18.6017 8.64062 20.1593 10.1983 20.1593 12.1197C20.1593 14.0411 18.6017 15.5988 16.6802 15.5988C14.7588 15.5988 13.2012 14.0411 13.2012 12.1197Z" fill="white"/>
      <path fill-rule="evenodd" clip-rule="evenodd" d="M9.13577 12.2398L10.9279 14.032L9.23215 15.7277L7.44002 13.9356L5.6479 15.7277L3.95215 14.032L5.74427 12.2398L3.95215 10.4477L5.6479 8.75195L7.44002 10.5441L9.23215 8.75195L10.9279 10.4477L9.13577 12.2398Z" fill="white"/>
    </g>

    <g id="icon-discord-dark" transform="translate(0,224)">
      <path d="M25.0245 7.67497C23.3162 6.88121 21.5129 6.31809 19.6605 6C19.407 6.45992 19.1776 6.93311 18.9734 7.4176C17.0002 7.11582 14.9936 7.11582 13.0204 7.4176C12.816 6.93316 12.5867 6.45997 12.3333 6C10.4797 6.32078 8.67515 6.88523 6.96521 7.67912C3.57053 12.7767 2.65029 17.7476 3.11041 22.648C5.09842 24.1388 7.32356 25.2725 9.68913 26C10.2218 25.2729 10.6931 24.5015 11.0981 23.6941C10.3289 23.4025 9.5864 23.0427 8.87931 22.6189C9.06541 22.4819 9.24741 22.3408 9.42328 22.2038C11.4807 23.1859 13.7263 23.695 16 23.695C18.2736 23.695 20.5192 23.1859 22.5766 22.2038C22.7545 22.3512 22.9365 22.4923 23.1206 22.6189C22.4121 23.0434 21.6683 23.4038 20.8977 23.6961C21.3022 24.5032 21.7736 25.2739 22.3067 26C24.6743 25.2755 26.9011 24.1422 28.8895 22.6501C29.4294 16.9672 27.9672 12.0419 25.0245 7.67497ZM11.6809 19.6343C10.3987 19.6343 9.33944 18.4533 9.33944 17.0004C9.33944 15.5475 10.3619 14.3562 11.6769 14.3562C12.9918 14.3562 14.0429 15.5475 14.0204 17.0004C13.9979 18.4533 12.9877 19.6343 11.6809 19.6343ZM20.319 19.6343C19.0347 19.6343 17.9795 18.4533 17.9795 17.0004C17.9795 15.5475 19.002 14.3562 20.319 14.3562C21.6359 14.3562 22.6789 15.5475 22.6564 17.0004C22.6339 18.4533 21.6257 19.6343 20.319 19.6343Z" fill="#EEEEEE"/>
    </g>

    <g id="icon-discord-light" transform="translate(0,256)">
      <path d="M25.0245 7.67497C23.3162 6.88121 21.5129 6.31809 19.6605 6C19.407 6.45992 19.1776 6.93311 18.9734 7.4176C17.0002 7.11582 14.9936 7.11582 13.0204 7.4176C12.816 6.93316 12.5867 6.45997 12.3333 6C10.4797 6.32078 8.67515 6.88523 6.96521 7.67912C3.57053 12.7767 2.65029 17.7476 3.11041 22.648C5.09842 24.1388 7.32356 25.2725 9.68913 26C10.2218 25.2729 10.6931 24.5015 11.0981 23.6941C10.3289 23.4025 9.5864 23.0427 8.87931 22.6189C9.06541 22.4819 9.24741 22.3408 9.42328 22.2038C11.4807 23.1859 13.7263 23.695 16 23.695C18.2736 23.695 20.5192 23.1859 22.5766 22.2038C22.7545 22.3512 22.9365 22.4923 23.1206 22.6189C22.4121 23.0434 21.6683 23.4038 20.8977 23.6961C21.3022 24.5032 21.7736 25.2739 22.3067 26C24.6743 25.2755 26.9011 24.1422 28.8895 22.6501C29.4294 16.9672 27.9672 12.0419 25.0245 7.67497ZM11.6809 19.6343C10.3987 19.6343 9.33944 18.4533 9.33944 17.0004C9.33944 15.5475 10.3619 14.3562 11.6769 14.3562C12.9918 14.3562 14.0429 15.5475 14.0204 17.0004C13.9979 18.4533 12.9877 19.6343 11.6809 19.6343ZM20.319 19.6343C19.0347 19.6343 17.9795 18.4533 17.9795 17.0004C17.9795 15.5475 19.002 14.3562 20.319 14.3562C21.6359 14.3562 22.6789 15.5475 22.6564 17.0004C22.6339 18.4533 21.6257 19.6343 20.319 19.6343Z" fill="#111111"/>
    </g>

    <g id="icon-register" transform="translate(0,288)">
    <path d="M14.424 16.282L18.826 20.681L13 22L14.424 16.282ZM29.2967 8.83105C29.6858 9.21992 29.6877 9.84999 29.3011 10.2412L20.311 19.338L15.775 14.802L24.7571 5.71517C25.1469 5.32084 25.7831 5.31893 26.1752 5.7109L29.2967 8.83105ZM24 18.45V24.5C24 24.7761 23.7761 25 23.5 25H8.5C8.22386 25 8 24.7761 8 24.5V13.5C8 13.2239 8.22386 13 8.5 13H14.743L16.721 11H7C6.44771 11 6 11.4477 6 12V26C6 26.5523 6.44772 27 7 27H25C25.5523 27 26 26.5523 26 26V16.427L24 18.45Z" fill="#111111"/>
    </g>

    <g id="icon-contestants" transform="translate(0,320)">
      <path d="M23.996 24H8.00267L8 23.1693C8 21.4907 8.13333 20.5213 10.1173 20.0627C12.3627 19.544 14.576 19.0813 13.5107 17.1173C10.356 11.3 12.612 8 15.9987 8C19.32 8 21.6333 11.1773 18.4867 17.1187C17.4533 19.0707 19.588 19.5347 21.88 20.064C23.8667 20.5227 23.9987 21.4933 23.9987 23.1747L23.996 24ZM30.4107 21.048C28.6907 20.6507 27.0907 20.3027 27.8653 18.8387C30.224 14.3827 28.4907 12 25.9987 12C24.312 12 23.0013 13.0893 23.0013 15.0987C23.0013 20.3027 26.0253 17.4587 25.996 24H31.9973L32 23.3827C32 22.1213 31.9013 21.392 30.4107 21.048ZM0.00266667 24H6.004C5.976 17.4587 8.99867 20.304 8.99867 15.0987C8.99867 13.0893 7.688 12 6.00133 12C3.50933 12 1.776 14.3827 4.136 18.8387C4.91067 20.304 3.31067 20.6507 1.59067 21.048C0.0986667 21.392 0 22.1213 0 23.3827L0.00266667 24Z" fill="#111111"/>
    </g>

    <g id="icon-register" transform="translate(0,352)">
      <path fill-rule="evenodd" clip-rule="evenodd" d="M27 27C27 27.5523 26.5523 28 26 28H10C9.44772 28 9 27.5523 9 27V9C9 8.44772 9.44772 8 10 8H26C26.5523 8 27 8.44772 27 9V27ZM11 10H25V12H11V10ZM11 14H19V16H11V14ZM11 18H23V20H11V18ZM11 24H16V26H11V24Z" fill="#EEEEEE"/>
      <path d="M23 6C23.5523 6 24 5.55228 24 5C24 4.44772 23.5523 4 23 4H6C5.44772 4 5 4.44772 5 5V24C5 24.5523 5.44772 25 6 25C6.55228 25 7 24.5523 7 24V6.25C7 6.11193 7.11193 6 7.25 6H23Z" fill="#EEEEEE"/>
    </g>

    <g id="icon-close" transform="translate(0,384)">
      <path fill-rule="evenodd" clip-rule="evenodd" d="M16.0001 18.8285L9.41424 25.4144L6.58582 22.5859L13.1716 16.0001L6.58587 9.41436L9.4143 6.58594L16.0001 13.1717L22.5858 6.58594L25.4142 9.41436L18.8285 16.0001L25.4143 22.5859L22.5859 25.4144L16.0001 18.8285Z" fill="#111111"/>
    </g>

    <g id="icon-arrow-dark" transform="translate(0,416)">
      <path fill-rule="evenodd" clip-rule="evenodd" d="M22.0711 13.9999L17 8.92883L19.8284 6.1004L29.7279 15.9999L19.8284 25.8994L17 23.071L22.0711 17.9999L4.27208 17.9999L4.27208 13.9999H22.0711Z" fill="#111111"/>
    </g>

    <g id="icon-arrow-light" transform="translate(0,448)">
      <path fill-rule="evenodd" clip-rule="evenodd" d="M22.0711 13.9999L17 8.92883L19.8284 6.1004L29.7279 15.9999L19.8284 25.8994L17 23.071L22.0711 17.9999L4.27208 17.9999L4.27208 13.9999H22.0711Z" fill="#EEEEEE"/>
    </g>

    <g id="icon-list-dark" transform="translate(0,480)">
      <path d="M8 26H4V22H8V26ZM8 14H4V18H8V14ZM8 6H4V10H8V6ZM11 6V10H28V6H11ZM11 18H28V14H11V18ZM11 26H28V22H11V26Z" fill="#111111"/>
    </g>

    <g id="icon-list-light" transform="translate(0,512)">
      <path d="M8 26H4V22H8V26ZM8 14H4V18H8V14ZM8 6H4V10H8V6ZM11 6V10H28V6H11ZM11 18H28V14H11V18ZM11 26H28V22H11V26Z" fill="#EEEEEE"/>
    </g>

    <g id="icon-stats-dark" transform="translate(0,544)">
      <path d="M11 28H5V22H11V28ZM19 19H13V28H19V19ZM27 15H21V28H27V15ZM27 4L21 5.221L22.716 6.929L15.866 13.662L12.865 10.66L5.024 18.457L6.434 19.875L12.861 13.485L15.852 16.478L24.132 8.341L25.799 10.001L27 4Z" fill="#111111"/>
    </g>

    <g id="icon-stats-light" transform="translate(0,576)">
      <path d="M11 28H5V22H11V28ZM19 19H13V28H19V19ZM27 15H21V28H27V15ZM27 4L21 5.221L22.716 6.929L15.866 13.662L12.865 10.66L5.024 18.457L6.434 19.875L12.861 13.485L15.852 16.478L24.132 8.341L25.799 10.001L27 4Z" fill="#EEEEEE"/>
    </g>
</svg>
